<svg version="1.1" id="Layer_1" xmlns="http://www.w3.org/2000/svg" x="0" y="0" viewBox="0 0 512 512" style="enable-background:new 0 0 512 512" xml:space="preserve"><path style="fill:#ff877f" d="M256 499.187c64.956 0 126.029-25.293 171.964-71.228 94.814-94.822 94.814-249.114 0-343.936C382.029 38.097 320.956 12.796 256 12.796S129.971 38.097 84.036 84.032c-94.814 94.822-94.814 249.114 0 343.936 45.935 45.926 107.008 71.219 171.964 71.219z"/><path style="fill:#573a32" d="M437.018 437.013c99.977-99.968 99.977-262.067 0-362.027-99.968-99.977-262.067-99.977-362.035 0-99.977 99.968-99.977 262.067 0 362.027 99.967 99.977 262.067 99.977 362.035 0zM93.082 93.077c89.984-89.967 235.853-89.967 325.837 0 89.967 89.984 89.967 235.853 0 325.828-89.984 89.967-235.853 89.967-325.837 0-89.967-89.975-89.967-235.844 0-325.828z"/><path style="fill:#573a32" d="M156.442 355.554c4.992 5.001 13.107 5.001 18.099 0L256 274.095l81.459 81.459c4.992 5.001 13.107 5.001 18.099 0 5.001-4.992 5.001-13.107 0-18.099l-81.459-81.459 81.459-81.459c5.001-4.992 5.001-13.107 0-18.099-4.992-5.001-13.107-5.001-18.099 0L256 237.897l-81.459-81.459c-4.992-5.001-13.107-5.001-18.099 0-5.001 4.992-5.001 13.107 0 18.099l81.459 81.459-81.459 81.459c-5.001 4.992-5.001 13.107 0 18.099z"/></svg>